<svg width="56" height="56" viewBox="0 0 56 56" fill="none" xmlns="http://www.w3.org/2000/svg">
<circle opacity="0.1" cx="28" cy="28" r="28" fill="#FF1111"/>
<path d="M38.5 19.375V38.875C38.5 39.2031 38.3594 39.4844 38.125 39.6719C37.9375 39.9062 37.6562 40 37.375 40C37.0469 40 36.7656 39.9062 36.5781 39.6719C36.3438 39.4844 36.25 39.2031 36.25 38.875V32.5H33.9531C33.5312 32.5 33.1562 32.4531 32.7812 32.3125C32.4062 32.125 32.0781 31.9375 31.7969 31.6562C31.5156 31.375 31.3281 31 31.1406 30.6719C31 30.2969 30.9531 29.875 30.9531 29.5L31 24.1562C30.9531 22.4219 31.5156 20.7344 32.4531 19.3281C33.4375 17.875 34.7969 16.7969 36.4375 16.1406C36.5781 16.0469 36.7656 16.0469 37 16C37.375 16 37.75 16.1875 38.0312 16.4688C38.3125 16.75 38.5 17.125 38.5 17.5V19.375ZM36.25 18.7656C35.3125 19.3281 34.5625 20.125 34 21.0625C33.4844 22 33.2031 23.0781 33.25 24.1562L33.2031 29.5C33.2031 29.7344 33.25 29.9219 33.3906 30.0625C33.5312 30.2031 33.7188 30.25 33.9531 30.25H36.2031L36.25 18.7656ZM28.75 16.375C28.9844 16.5625 29.125 16.8438 29.125 17.125V24.625C29.0781 25.75 28.6562 26.7812 27.9062 27.5781C27.1094 28.3281 26.0781 28.75 25 28.75H24.625V38.875C24.625 39.2031 24.4844 39.4844 24.25 39.6719C24.0625 39.9062 23.7812 40 23.5 40C23.1719 40 22.8906 39.9062 22.7031 39.6719C22.4688 39.4844 22.375 39.2031 22.375 38.875V28.75H22C20.875 28.75 19.8438 28.3281 19.0469 27.5781C18.2969 26.7812 17.875 25.75 17.875 24.625V17.125C17.875 16.8438 17.9688 16.5625 18.2031 16.375C18.3906 16.1406 18.6719 16 19 16C19.2812 16 19.5625 16.1406 19.75 16.375C19.9844 16.5625 20.125 16.8438 20.125 17.125V22.75H22.375V17.2188C22.375 16.9375 22.4688 16.6562 22.7031 16.4219C22.8906 16.2344 23.1719 16.0938 23.5 16.0938C23.7812 16.0938 24.0625 16.2344 24.25 16.4219C24.4844 16.6562 24.625 16.9375 24.625 17.2188V22.75H26.875V17.125C26.875 16.8438 26.9688 16.5625 27.2031 16.375C27.3906 16.1406 27.6719 16 28 16C28.2812 16 28.5625 16.1406 28.75 16.375ZM26.125 26.0781C26.4531 25.7969 26.6875 25.4219 26.7812 25H20.1719C20.2656 25.4219 20.5 25.7969 20.8281 26.0781C21.1562 26.3594 21.5312 26.5 22 26.5H25C25.4219 26.5 25.7969 26.3594 26.125 26.0781Z" fill="#FF2E2E"/>
</svg>
