<svg width="14" height="11" viewBox="0 0 14 11" fill="none" xmlns="http://www.w3.org/2000/svg">
    <path d="M12.8125 1.75C12.2734 1.75 11.875 2.17188 11.875 2.6875C11.875 2.89844 11.9453 3.08594 12.0625 3.25L9.95312 4.9375C9.8125 5.05469 9.64844 5.10156 9.48438 5.10156C9.22656 5.10156 8.94531 4.9375 8.82812 4.67969L7.46875 1.98438C7.75 1.82031 7.91406 1.53906 7.91406 1.1875C7.91406 0.671875 7.51562 0.25 7 0.25C6.46094 0.25 6.03906 0.671875 6.03906 1.1875C6.03906 1.53906 6.22656 1.82031 6.48438 1.98438L5.14844 4.67969C5.03125 4.9375 4.75 5.10156 4.49219 5.10156C4.32812 5.10156 4.16406 5.05469 4.02344 4.9375L1.91406 3.25C2.03125 3.08594 2.10156 2.89844 2.10156 2.6875C2.10156 2.17188 1.67969 1.75 1.16406 1.75C0.648438 1.75 0.226562 2.17188 0.226562 2.6875C0.226562 3.22656 0.648438 3.625 1.16406 3.625L2.35938 10.1406C2.42969 10.4922 2.75781 10.75 3.10938 10.75H10.8672C11.2188 10.75 11.5469 10.4922 11.5938 10.1406L12.7891 3.625C12.7891 3.625 12.7891 3.625 12.8125 3.625C13.3281 3.625 13.75 3.22656 13.75 2.6875C13.75 2.17188 13.3281 1.75 12.8125 1.75ZM10.5391 9.625H3.4375L2.64062 5.26562L3.32031 5.80469C3.64844 6.08594 4.07031 6.22656 4.49219 6.22656C5.19531 6.22656 5.85156 5.82812 6.15625 5.19531L7 3.53125L7.82031 5.19531C8.14844 5.82812 8.78125 6.22656 9.48438 6.22656C9.92969 6.22656 10.3281 6.08594 10.6562 5.80469L11.3359 5.26562L10.5391 9.625Z" fill="#FF7F00"/>
</svg>
