<svg width="10" height="12" viewBox="0 0 10 12" fill="none" xmlns="http://www.w3.org/2000/svg">
    <path  d="M8.75 10.5V9.75H10V10.5C10 11.3438 9.24479 12 8.33333 12H1.66667C0.729167 12 0 11.3438 0 10.5V9.75H1.25V10.5C1.25 10.7109 1.43229 10.875 1.66667 10.875H8.33333C8.54167 10.875 8.75 10.7109 8.75 10.5ZM6.66667 3.75C6.19792 3.75 5.83333 3.42188 5.83333 3V1.125H1.66667C1.43229 1.125 1.25 1.3125 1.25 1.5V4.5H0V1.5C0 0.679688 0.729167 0 1.66667 0H5.96354C6.40625 0 6.82292 0.164062 7.13542 0.445312L9.50521 2.57812C9.81771 2.85938 10 3.23438 10 3.63281V4.5H8.75V3.75H6.66667ZM3.33333 5.25C3.90625 5.25 4.375 5.67188 4.375 6.1875V6.375C4.375 6.58594 4.16667 6.75 3.95833 6.75C3.72396 6.75 3.54167 6.58594 3.54167 6.375V6.1875C3.54167 6.09375 3.4375 6 3.33333 6H2.91667C2.78646 6 2.70833 6.09375 2.70833 6.1875V8.0625C2.70833 8.17969 2.78646 8.25 2.91667 8.25H3.33333C3.4375 8.25 3.54167 8.17969 3.54167 8.0625V7.875C3.54167 7.6875 3.72396 7.5 3.95833 7.5C4.16667 7.5 4.375 7.6875 4.375 7.875V8.0625C4.375 8.60156 3.90625 9 3.33333 9H2.91667C2.31771 9 1.875 8.60156 1.875 8.0625V6.1875C1.875 5.67188 2.31771 5.25 2.91667 5.25H3.33333ZM6.45833 6.375C6.45833 6.91406 6.58854 7.45312 6.875 7.92188C7.13542 7.45312 7.29167 6.91406 7.29167 6.375V5.625C7.29167 5.4375 7.47396 5.25 7.70833 5.25C7.91667 5.25 8.125 5.4375 8.125 5.625V6.375C8.125 7.19531 7.83854 7.99219 7.34375 8.67188L7.21354 8.83594C7.13542 8.95312 7.00521 9 6.875 9C6.71875 9 6.58854 8.95312 6.51042 8.83594L6.38021 8.67188C5.88542 7.99219 5.625 7.19531 5.625 6.375V5.625C5.625 5.4375 5.80729 5.25 6.04167 5.25C6.25 5.25 6.45833 5.4375 6.45833 5.625V6.375Z" fill="white"/>
</svg>
