<svg id="filter_1_" data-name="filter (1)" xmlns="http://www.w3.org/2000/svg" width="14.328" height="14.473" viewBox="0 0 14.328 14.473">
  <path id="Path_4885" data-name="Path 4885" d="M64.143,60.713h6.242a1.87,1.87,0,0,0,3.633,0h3.561a.443.443,0,1,0,0-.885H74.018a1.87,1.87,0,0,0-3.633,0H64.143a.443.443,0,0,0,0,.885ZM72.2,59.221a1.053,1.053,0,0,1,1.051,1.051,1.024,1.024,0,0,1-.1.443,1.051,1.051,0,0,1-2-.443,1.024,1.024,0,0,1,.1-.443A1.051,1.051,0,0,1,72.2,59.221Z" transform="translate(-63.693 -58.4)" fill="#454545"/>
  <path id="Path_4886" data-name="Path 4886" d="M77.178,387.228H70.491a1.87,1.87,0,0,0-3.633,0H63.743a.443.443,0,0,0,0,.885H66.86a1.87,1.87,0,0,0,3.633,0h6.686a.442.442,0,0,0,.443-.443A.445.445,0,0,0,77.178,387.228Zm-8.5,1.492a1.05,1.05,0,0,1-1.051-1.049,1.025,1.025,0,0,1,.1-.443,1.051,1.051,0,0,1,2,.443,1.024,1.024,0,0,1-.1.443A1.053,1.053,0,0,1,68.675,388.72Z" transform="translate(-63.3 -380.432)" fill="#454545"/>
  <path id="Path_4887" data-name="Path 4887" d="M77.178,714.526H73.625a1.87,1.87,0,0,0-3.633,0H63.743a.443.443,0,0,0,0,.885h6.248a1.87,1.87,0,0,0,3.633,0h3.555a.442.442,0,0,0,.443-.443A.445.445,0,0,0,77.178,714.526Zm-5.37,1.492a1.051,1.051,0,0,1-1.051-1.049,1.024,1.024,0,0,1,.1-.443,1.051,1.051,0,0,1,2,.443,1.025,1.025,0,0,1-.1.443A1.056,1.056,0,0,1,71.808,716.019Z" transform="translate(-63.3 -702.366)" fill="#454545"/>
</svg>
