<svg width="12" height="11" viewBox="0 0 12 11" fill="none" xmlns="http://www.w3.org/2000/svg">
    <path  d="M5.71875 1.46875L5.97656 1.75L6.25781 1.49219C7.03125 0.71875 8.13281 0.367188 9.1875 0.554688C10.8047 0.8125 12 2.21875 12 3.85938V3.97656C12 4.96094 11.5781 5.89844 10.875 6.55469L6.63281 10.5156C6.46875 10.6797 6.23438 10.75 6 10.75C5.74219 10.75 5.50781 10.6797 5.34375 10.5156L1.10156 6.55469C0.398438 5.89844 0 4.96094 0 3.97656V3.85938C0 2.21875 1.17188 0.8125 2.78906 0.554688C3.84375 0.367188 4.94531 0.71875 5.71875 1.46875C5.71875 1.49219 5.69531 1.46875 5.71875 1.46875ZM5.97656 3.34375L4.92188 2.26562C4.40625 1.77344 3.67969 1.53906 2.97656 1.65625C1.89844 1.84375 1.125 2.75781 1.125 3.85938V3.97656C1.125 4.65625 1.38281 5.28906 1.875 5.73438L6 9.57812L10.1016 5.73438C10.5938 5.28906 10.875 4.65625 10.875 3.97656V3.85938C10.875 2.75781 10.0781 1.84375 9 1.65625C8.29688 1.53906 7.57031 1.77344 7.05469 2.26562L5.97656 3.34375Z" fill="white"/>
</svg>
