<svg width="14" height="11" viewBox="0 0 14 11" fill="none" xmlns="http://www.w3.org/2000/svg">
    <path d="M13.75 0.8125V10.1875C13.75 10.5156 13.4922 10.75 13.1875 10.75C12.8594 10.75 12.625 10.5156 12.625 10.1875V10.0703L8.45312 8.92188C8.24219 9.97656 7.32812 10.75 6.25 10.75C4.98438 10.75 4 9.74219 4 8.5C4 8.24219 4.02344 7.98438 4.11719 7.75L1.375 7V7.1875C1.375 7.51562 1.11719 7.75 0.8125 7.75C0.484375 7.75 0.25 7.51562 0.25 7.1875V3.8125C0.25 3.50781 0.484375 3.25 0.8125 3.25C1.11719 3.25 1.375 3.50781 1.375 3.8125V4.02344L12.625 0.953125V0.8125C12.625 0.507812 12.8594 0.25 13.1875 0.25C13.4922 0.25 13.75 0.507812 13.75 0.8125ZM12.625 8.89844V2.125L1.375 5.19531V5.82812L12.625 8.89844ZM6.25 9.625C6.8125 9.625 7.30469 9.20312 7.35156 8.64062L5.21875 8.05469C5.14844 8.19531 5.125 8.33594 5.125 8.5C5.125 9.13281 5.61719 9.625 6.25 9.625Z" fill="white"/>
</svg>
