<?xml version="1.0" encoding="utf-8"?>
<!-- Generator: Adobe Illustrator 24.0.1, SVG Export Plug-In . SVG Version: 6.00 Build 0)  -->
<svg version="1.1" id="Layer_1" xmlns="http://www.w3.org/2000/svg" xmlns:xlink="http://www.w3.org/1999/xlink" x="0px" y="0px"
	 viewBox="0 0 384 384" style="enable-background:new 0 0 384 384;" xml:space="preserve">
<style type="text/css">
	.st0{fill:#1AB6F1;}
</style>
<path class="st0" d="M213.7,175.7h-89.5H16c-8.8,0-16,7.2-16,16c0,8.8,7.2,16,16,16h108.2h89.5c8.8,0,16-7.2,16-16
	C229.7,182.8,222.5,175.7,213.7,175.7z"/>
<path class="st0" d="M368,85H16C7.2,85,0,77.8,0,69s7.2-16,16-16h352c8.8,0,16,7.2,16,16S376.8,85,368,85z"/>
<path class="st0" d="M368,330.3H16c-8.8,0-16-7.2-16-16s7.2-16,16-16h352c8.8,0,16,7.2,16,16S376.8,330.3,368,330.3z"/>
</svg>
