<svg width="12" height="13" viewBox="0 0 12 13" fill="none" xmlns="http://www.w3.org/2000/svg">
    <path d="M11.625 3.78125C11.6016 6.125 10.6406 10.3672 6.60938 12.3125C6.21094 12.5 5.76562 12.5 5.36719 12.3125C1.33594 10.3672 0.375 6.125 0.375 3.78125C0.351562 3.17188 0.75 2.67969 1.26562 2.44531L5.67188 0.570312C5.76562 0.546875 5.88281 0.5 6 0.5C6.09375 0.5 6.21094 0.546875 6.30469 0.570312L10.7109 2.44531C11.2266 2.67969 11.625 3.17188 11.625 3.78125ZM5.4375 1.90625L1.71094 3.47656C1.57031 3.54688 1.47656 3.66406 1.5 3.78125C1.5 5.84375 2.32031 9.3125 5.4375 11.0703V1.90625ZM6.5625 11.0703C9.65625 9.3125 10.4766 5.84375 10.5 3.78125C10.5 3.66406 10.4062 3.54688 10.2656 3.47656L6.5625 1.90625V11.0703Z" fill="white"/>
</svg>
