<svg width="12" height="13" viewBox="0 0 12 13" fill="none" xmlns="http://www.w3.org/2000/svg">
    <path d="M7.125 7.625H4.875C2.57812 7.625 0.75 9.47656 0.75 11.75C0.75 12.1719 1.07812 12.5 1.5 12.5H10.5C10.8984 12.5 11.25 12.1719 11.25 11.75C11.25 9.47656 9.39844 7.625 7.125 7.625ZM1.875 11.375C2.0625 9.89844 3.32812 8.75 4.875 8.75H7.125C8.64844 8.75 9.91406 9.89844 10.1016 11.375H1.875ZM6 6.5C7.64062 6.5 9 5.16406 9 3.5C9 1.85938 7.64062 0.5 6 0.5C4.33594 0.5 3 1.85938 3 3.5C3 5.16406 4.33594 6.5 6 6.5ZM6 1.625C7.03125 1.625 7.875 2.46875 7.875 3.5C7.875 4.55469 7.03125 5.375 6 5.375C4.94531 5.375 4.125 4.55469 4.125 3.5C4.125 2.46875 4.94531 1.625 6 1.625Z" fill="white"/>
</svg>
