<svg width="12" height="12" viewBox="0 0 12 12" fill="none" xmlns="http://www.w3.org/2000/svg">
    <path d="M11.4492 11.7344C11.2383 11.9453 10.8516 11.9453 10.6406 11.7344L6 7.05859L1.32422 11.7344C1.11328 11.9453 0.726562 11.9453 0.515625 11.7344C0.304688 11.5234 0.304688 11.1367 0.515625 10.9258L5.19141 6.25L0.515625 1.60938C0.304688 1.39844 0.304688 1.01172 0.515625 0.800781C0.726562 0.589844 1.11328 0.589844 1.32422 0.800781L6 5.47656L10.6406 0.800781C10.8516 0.589844 11.2383 0.589844 11.4492 0.800781C11.6602 1.01172 11.6602 1.39844 11.4492 1.60938L6.77344 6.25L11.4492 10.9258C11.6602 11.1367 11.6602 11.5234 11.4492 11.7344Z" fill="black"/>
</svg>
