<?xml version="1.0" encoding="utf-8"?>
<!-- Generator: Adobe Illustrator 24.0.1, SVG Export Plug-In . SVG Version: 6.00 Build 0)  -->
<svg version="1.1" id="Layer_1" xmlns="http://www.w3.org/2000/svg" xmlns:xlink="http://www.w3.org/1999/xlink" x="0px" y="0px"
	 viewBox="0 0 128 128" style="enable-background:new 0 0 128 128;" xml:space="preserve">
<style type="text/css">
	.st0{fill:#00A3E0;}
	.st1{fill:#212744;}
	.st2{fill:#FFFFFF;}
</style>
<path class="st0" d="M126,25.11v77.78c0,12.21-9.9,22.11-22.11,22.11H26.11C13.9,125,4,115.1,4,102.89V25.11
	c0-10.09,6.76-18.6,15.99-21.24C21.93,3.3,23.99,3,26.11,3h77.78C116.1,3,126,12.9,126,25.11z"/>
<path class="st1" d="M126,25.11v55.12C114.72,88.27,100.92,93,86,93c-38.11,0-69-30.89-69-69c0-7,1.04-13.76,2.99-20.13
	C21.93,3.3,23.99,3,26.11,3h77.78C116.1,3,126,12.9,126,25.11z"/>
<path id="Path_1" class="st2" d="M90.29,48.12c3.48,5.63,5.09,13.14,5.09,23.05v35.12c0,2.14-0.8,4.29-2.41,5.9
	c-1.61,1.61-3.75,2.41-5.9,2.41c-2.14,0-4.29-0.8-5.9-2.41c-1.61-1.61-2.41-3.75-2.41-5.9V71.17c0.27-4.29-0.8-8.31-2.95-11.79
	c-1.88-2.95-5.36-4.29-10.45-4.29c-4.56-0.27-8.85,1.34-12.06,4.56c-2.95,3.22-4.56,7.24-4.29,11.53v35.12c0,2.14-0.8,4.29-2.41,5.9
	s-3.75,2.41-5.9,2.41c-2.14,0-4.29-0.8-5.9-2.41c-1.07-1.61-1.88-3.75-1.88-5.9V21.31c0-2.14,0.8-4.29,2.41-5.9
	C36.68,13.8,38.82,13,40.97,13c2.14,0,4.29,0.8,5.9,2.41s2.41,3.75,2.41,5.9V51.6c2.68-3.48,5.63-6.17,9.38-8.58
	c3.75-2.41,8.31-3.48,12.6-3.48C80.37,39.81,86.81,42.49,90.29,48.12z"/>
</svg>
