<?xml version="1.0" encoding="utf-8"?>
<!-- Generator: Adobe Illustrator 24.0.1, SVG Export Plug-In . SVG Version: 6.00 Build 0)  -->
<svg version="1.1" id="Capa_1" xmlns="http://www.w3.org/2000/svg" xmlns:xlink="http://www.w3.org/1999/xlink" x="0px" y="0px"
	 viewBox="0 0 311.5 311.5" style="enable-background:new 0 0 311.5 311.5;" xml:space="preserve">
<style type="text/css">
	.st0{fill:#C7E0FF;}
</style>
<g>
	<path class="st0" d="M155.8,3.4c-83.4,0-151,67.6-151,151c0,47.8,22.2,90.3,56.8,118c2.6-9.1,6.1-17.8,11.3-25.7
		c6.7-10.2,15.5-18,26.4-23.5c5-2.5,10.2-4.4,15.5-5.9c0.8-0.2,1.4-0.2,2.2,0.2c5.8,3.1,11.8,5.3,18.2,6.9c4.7,1.2,9.4,1.9,14.2,2.3
		c3.8,0.3,7.7,0.4,11.5,0.1c5.4-0.3,10.7-1.2,15.9-2.5c6.4-1.6,12.5-4,18.3-7.1c0.6-0.3,1.1-0.1,1.6,0c4.4,1.2,8.7,2.7,12.9,4.6
		c5.4,2.5,10.5,5.5,15.1,9.2c7.2,5.8,12.8,12.8,17.2,20.8c2.9,5.3,5.3,10.8,7.1,16.6c0.4,1.3,0.8,2.6,1.2,3.9
		c34.6-27.7,56.8-70.3,56.8-118C306.8,71.1,239.2,3.4,155.8,3.4z M157.1,210.2c-38.6,0.6-67.2-29.9-68.4-64.6
		c-1.3-39.3,29.9-68.7,65.1-69.6c38.6-1,69.1,30,69.1,67.1C222.8,180,193.4,209.6,157.1,210.2z"/>
</g>
</svg>
